<?xml version="1.0" standalone="no"?>
<!DOCTYPE svg PUBLIC "-//W3C//DTD SVG 20010904//EN"
 "http://www.w3.org/TR/2001/REC-SVG-20010904/DTD/svg10.dtd">
<svg version="1.0" xmlns="http://www.w3.org/2000/svg"
 width="1500.000000pt" height="1500.000000pt" viewBox="0 0 1500.000000 1500.000000"
 preserveAspectRatio="xMidYMid meet">
<metadata>
Created by potrace 1.11, written by Peter Selinger 2001-2013
</metadata>
<g transform="translate(0.000000,1500.000000) scale(0.100000,-0.100000)"
fill="#000000" stroke="none">
<path d="M3440 11720 c0 -5 -20 -10 -45 -10 -25 0 -45 -4 -45 -10 0 -5 -18
-10 -40 -10 -22 0 -40 -4 -40 -10 0 -5 -14 -10 -30 -10 -32 0 -40 -6 -135 -97
-30 -29 -58 -53 -63 -53 -4 0 -14 -9 -22 -20 -8 -11 -22 -20 -32 -20 -10 0
-18 -4 -18 -10 0 -5 -9 -10 -20 -10 -11 0 -20 -4 -20 -9 0 -5 -13 -11 -30 -14
-33 -7 -140 -107 -140 -132 0 -8 -4 -15 -10 -15 -5 0 -10 -7 -10 -15 0 -8 -4
-15 -10 -15 -5 0 -10 -9 -10 -20 0 -11 -4 -20 -10 -20 -5 0 -10 -7 -10 -16 0
-8 -7 -22 -15 -30 -8 -9 -15 -23 -15 -32 0 -9 -14 -28 -31 -42 -16 -14 -52
-46 -78 -71 -47 -44 -49 -48 -56 -117 -4 -40 -11 -72 -16 -72 -5 0 -9 -22 -9
-50 0 -27 -4 -50 -10 -50 -5 0 -10 -16 -10 -35 0 -19 -4 -35 -10 -35 -5 0 -10
-7 -10 -15 0 -20 -85 -105 -104 -105 -7 0 -16 -7 -20 -15 -5 -13 -119 -15
-943 -15 -927 0 -939 0 -953 -20 -8 -11 -20 -20 -28 -20 -7 0 -35 -23 -62 -50
-44 -45 -49 -54 -43 -83 3 -18 10 -33 15 -35 4 -2 8 -12 8 -23 0 -10 5 -19 10
-19 6 0 10 -13 10 -30 0 -16 5 -30 10 -30 6 0 10 -9 10 -20 0 -11 5 -20 10
-20 6 0 10 -7 10 -15 0 -8 5 -15 10 -15 6 0 10 -9 10 -20 0 -11 5 -20 10 -20
6 0 10 -8 10 -18 0 -10 9 -24 20 -32 11 -8 20 -21 20 -28 0 -8 25 -38 55 -67
30 -30 55 -61 55 -69 0 -9 5 -16 10 -16 6 0 10 -9 10 -20 0 -11 5 -20 10 -20
6 0 10 -9 10 -20 0 -11 5 -20 10 -20 6 0 10 -7 10 -15 0 -8 5 -15 10 -15 6 0
10 -7 10 -16 0 -8 6 -21 13 -28 6 -8 19 -23 27 -35 8 -11 21 -21 30 -21 9 0
22 -9 30 -20 14 -20 26 -20 2052 -20 1231 0 2038 -4 2038 -9 0 -5 55 -11 123
-13 l122 -3 68 -67 c53 -54 67 -74 67 -98 0 -16 5 -30 10 -30 6 0 10 -13 10
-30 0 -16 5 -30 10 -30 6 0 10 -13 10 -30 0 -16 5 -30 10 -30 6 0 10 -9 10
-20 0 -11 7 -23 15 -26 8 -4 15 -15 15 -25 0 -10 5 -19 10 -19 6 0 10 -7 10
-16 0 -9 14 -29 30 -44 17 -15 30 -35 30 -44 0 -9 5 -16 10 -16 6 0 10 -7 10
-15 0 -8 5 -15 10 -15 6 0 10 -13 10 -29 0 -16 5 -31 10 -33 6 -2 14 -29 17
-61 3 -31 10 -57 15 -57 5 0 2 -7 -6 -16 -9 -8 -16 -22 -16 -30 0 -19 -44 -64
-62 -64 -8 0 -20 -9 -28 -20 -13 -18 -26 -20 -162 -20 -92 0 -148 -4 -148 -10
0 -7 -675 -10 -2005 -10 -1167 0 -2005 -4 -2005 -9 0 -5 -11 -12 -25 -15 -14
-4 -25 -11 -25 -16 0 -6 -7 -10 -15 -10 -20 0 -65 -45 -65 -65 0 -8 -4 -15
-10 -15 -5 0 -10 -9 -10 -20 0 -11 5 -20 10 -20 6 0 10 -11 10 -25 0 -14 5
-25 10 -25 6 0 10 -13 10 -30 0 -16 5 -30 10 -30 6 0 10 -13 10 -30 0 -16 5
-30 10 -30 6 0 10 -11 10 -25 0 -14 5 -25 10 -25 6 0 10 -13 10 -30 0 -16 5
-30 10 -30 6 0 10 -9 10 -20 0 -11 5 -20 10 -20 6 0 10 -9 10 -20 0 -20 43
-70 60 -70 6 0 10 -7 10 -16 0 -9 14 -29 30 -44 17 -15 30 -35 30 -44 0 -9 5
-16 10 -16 6 0 10 -9 10 -19 0 -11 9 -23 20 -26 11 -3 20 -14 20 -24 0 -22 33
-61 51 -61 8 0 21 -9 29 -20 8 -11 22 -20 32 -20 10 0 18 -4 18 -10 0 -7 423
-10 1250 -10 827 0 1250 -3 1250 -10 0 -6 58 -10 154 -10 128 0 155 -3 160
-15 3 -8 12 -15 21 -15 19 0 65 -44 65 -62 0 -8 9 -20 20 -28 14 -10 20 -26
20 -52 0 -21 5 -38 10 -38 6 0 10 -16 10 -35 0 -19 5 -35 10 -35 6 0 10 -13
10 -30 0 -16 4 -30 9 -30 6 0 13 -20 17 -45 3 -25 10 -45 15 -45 5 0 9 -7 9
-16 0 -9 14 -29 30 -44 16 -15 30 -34 30 -42 0 -7 9 -20 20 -28 11 -8 20 -20
20 -27 0 -7 5 -13 10 -13 6 0 10 -9 10 -20 0 -11 5 -20 10 -20 6 0 10 -9 10
-20 0 -11 4 -20 9 -20 5 0 11 -17 13 -37 4 -35 0 -42 -54 -95 -58 -58 -59 -58
-118 -58 -33 0 -60 -4 -60 -10 0 -6 -35 -10 -85 -10 -50 0 -85 -4 -85 -10 0
-7 -422 -10 -1245 -10 -823 0 -1245 -3 -1245 -10 0 -5 -9 -10 -20 -10 -11 0
-20 -4 -20 -9 0 -5 -10 -13 -22 -17 -28 -9 -68 -49 -68 -69 0 -8 -4 -15 -10
-15 -5 0 -10 -9 -10 -20 0 -11 5 -20 10 -20 6 0 10 -11 10 -25 0 -14 5 -25 10
-25 6 0 10 -13 10 -30 0 -16 5 -30 10 -30 6 0 10 -13 10 -30 0 -16 4 -30 9
-30 5 0 12 -25 16 -55 3 -30 11 -55 16 -55 5 0 9 -9 9 -20 0 -11 5 -20 10 -20
6 0 10 -7 10 -16 0 -8 18 -33 40 -54 22 -21 40 -41 40 -45 0 -4 13 -19 29 -34
16 -15 32 -42 36 -61 4 -19 16 -42 26 -51 11 -9 19 -19 19 -23 0 -12 49 -56
62 -56 8 0 20 -9 28 -20 8 -11 22 -20 32 -20 10 0 18 -4 18 -10 0 -6 66 -10
179 -10 171 0 180 -1 186 -20 3 -11 13 -20 21 -20 9 0 21 -6 28 -12 8 -7 23
-20 35 -28 11 -8 21 -21 21 -30 0 -9 9 -22 20 -30 20 -14 20 -26 20 -942 0
-612 3 -928 10 -928 6 0 10 -9 10 -20 0 -11 4 -20 9 -20 5 0 13 -9 16 -20 4
-13 18 -23 36 -27 16 -3 29 -9 29 -14 0 -5 209 -9 473 -9 461 0 473 0 487 -20
8 -11 21 -20 30 -20 9 0 22 -10 30 -21 8 -12 25 -32 38 -45 12 -13 22 -30 22
-39 0 -8 5 -15 10 -15 6 0 10 -25 10 -55 0 -30 5 -55 10 -55 6 0 10 -35 10
-85 0 -50 4 -85 10 -85 6 0 10 -18 10 -40 0 -22 5 -40 10 -40 6 0 10 -11 10
-25 0 -14 5 -25 10 -25 6 0 10 -9 10 -20 0 -11 5 -20 10 -20 6 0 10 -9 10 -20
0 -11 5 -20 10 -20 6 0 10 -9 10 -19 0 -11 7 -26 15 -35 8 -8 15 -18 15 -23 0
-5 9 -15 20 -23 11 -8 20 -22 20 -32 0 -10 5 -18 10 -18 6 0 10 -9 10 -20 0
-11 5 -20 10 -20 6 0 10 -8 10 -18 0 -10 9 -24 20 -32 11 -8 20 -25 20 -37 0
-13 5 -23 10 -23 6 0 10 -9 10 -20 0 -11 4 -20 9 -20 5 0 11 -22 15 -50 4 -27
11 -50 16 -50 6 0 10 -5 10 -10 0 -16 108 -120 124 -120 8 0 18 -9 21 -20 3
-11 14 -20 24 -20 22 0 61 -33 61 -51 0 -8 9 -21 20 -29 11 -8 20 -20 20 -27
0 -19 95 -113 114 -113 9 0 16 -4 16 -10 0 -5 9 -10 20 -10 11 0 20 -4 20 -10
0 -5 14 -10 30 -10 17 0 30 -4 30 -10 0 -5 7 -10 15 -10 8 0 15 -4 15 -10 0
-5 14 -10 30 -10 17 0 30 -4 30 -10 0 -5 8 -10 18 -10 10 0 24 -9 32 -20 8
-11 22 -20 32 -20 10 0 18 -4 18 -9 0 -5 15 -13 32 -17 18 -3 40 -15 49 -25 9
-11 23 -19 30 -19 8 0 21 -9 29 -20 8 -11 22 -20 32 -20 10 0 18 -4 18 -10 0
-5 11 -10 25 -10 14 0 25 -4 25 -10 0 -5 9 -10 20 -10 11 0 20 -4 20 -10 0 -5
23 -10 50 -10 28 0 50 -4 50 -10 0 -6 32 -10 75 -10 43 0 75 -4 75 -10 0 -6
92 -10 255 -10 163 0 255 4 255 10 0 6 32 10 75 10 43 0 75 4 75 10 0 6 23 10
50 10 28 0 50 5 50 10 0 6 7 10 15 10 8 0 15 5 15 10 0 6 14 10 30 10 17 0 30
5 30 10 0 6 8 10 18 10 10 0 24 9 32 20 8 11 22 20 32 20 9 0 19 9 23 19 4 13
19 22 45 26 22 4 40 11 40 16 0 5 8 9 18 9 10 0 24 9 32 20 8 11 22 20 32 20
10 0 18 5 18 10 0 6 11 10 25 10 14 0 25 5 25 10 0 6 9 10 20 10 11 0 20 5 20
10 0 6 14 10 30 10 17 0 30 5 30 10 0 6 9 10 20 10 11 0 20 5 20 10 0 6 5 10
10 10 12 0 22 8 80 62 22 20 40 42 40 49 0 6 8 19 18 28 11 9 22 28 26 43 4
19 15 30 34 34 15 4 34 15 43 26 9 10 22 18 28 18 7 0 29 18 49 40 54 58 62
68 62 80 0 5 5 10 10 10 6 0 10 9 10 20 0 11 5 20 10 20 6 0 10 14 10 30 0 17
5 30 10 30 6 0 10 9 10 20 0 11 5 20 10 20 6 0 10 11 10 25 0 14 5 25 10 25 6
0 10 8 10 18 0 10 9 24 20 32 11 8 20 22 20 32 0 10 4 18 9 18 5 0 12 18 16
40 4 26 13 41 26 45 10 4 19 14 19 23 0 10 9 24 20 32 11 8 20 22 20 32 0 10
5 18 10 18 6 0 10 14 10 30 0 17 5 30 10 30 6 0 10 7 10 15 0 8 5 15 10 15 6
0 10 23 10 50 0 28 5 50 10 50 6 0 10 32 10 75 0 41 4 75 9 75 4 0 11 31 13
69 5 66 7 71 51 115 26 25 52 46 60 46 7 0 19 9 27 20 14 20 26 20 1080 20
1054 0 1066 0 1080 -20 8 -11 21 -20 28 -20 12 0 33 -20 80 -74 6 -9 12 -22
12 -31 0 -8 5 -15 10 -15 6 0 10 -25 10 -55 0 -30 5 -55 10 -55 6 0 10 -35 10
-85 0 -50 4 -85 10 -85 6 0 10 -18 10 -40 0 -22 5 -40 10 -40 6 0 10 -11 10
-25 0 -14 5 -25 10 -25 6 0 10 -9 10 -20 0 -11 5 -20 10 -20 6 0 10 -9 10 -20
0 -11 5 -20 10 -20 6 0 10 -9 10 -20 0 -11 4 -20 9 -20 5 0 13 -10 17 -22 4
-13 15 -30 25 -39 11 -9 19 -24 19 -33 0 -9 5 -16 10 -16 6 0 10 -9 10 -20 0
-11 5 -20 10 -20 6 0 10 -8 10 -18 0 -10 9 -24 20 -32 11 -8 20 -25 20 -37 0
-13 5 -23 10 -23 6 0 10 -9 10 -20 0 -11 4 -20 9 -20 5 0 11 -22 15 -50 4 -27
11 -50 16 -50 6 0 10 -5 10 -10 0 -15 107 -120 123 -120 7 0 19 -9 27 -20 8
-11 19 -20 26 -20 17 0 54 -35 54 -51 0 -8 9 -21 20 -29 11 -8 20 -20 20 -28
0 -17 97 -112 115 -112 8 0 15 -4 15 -10 0 -5 9 -10 20 -10 11 0 20 -4 20 -10
0 -5 14 -10 30 -10 17 0 30 -4 30 -10 0 -5 7 -10 15 -10 8 0 15 -4 15 -10 0
-5 14 -10 30 -10 17 0 30 -4 30 -10 0 -5 8 -10 18 -10 10 0 24 -9 32 -20 8
-11 22 -20 32 -20 10 0 18 -4 18 -9 0 -5 15 -13 32 -17 18 -3 40 -15 49 -25 9
-11 23 -19 30 -19 8 0 21 -9 29 -20 8 -11 22 -20 32 -20 10 0 18 -4 18 -10 0
-5 11 -10 25 -10 14 0 25 -4 25 -10 0 -5 9 -10 20 -10 11 0 20 -4 20 -10 0 -5
23 -10 50 -10 28 0 50 -4 50 -10 0 -6 32 -10 75 -10 43 0 75 -4 75 -10 0 -6
92 -10 255 -10 163 0 255 4 255 10 0 6 32 10 75 10 43 0 75 4 75 10 0 6 23 10
50 10 28 0 50 5 50 10 0 6 7 10 15 10 8 0 15 5 15 10 0 6 14 10 30 10 17 0 30
5 30 10 0 6 8 10 18 10 10 0 24 9 32 20 8 11 21 20 30 20 9 0 22 9 30 20 8 11
29 23 47 26 18 3 33 10 33 15 0 5 8 9 18 9 10 0 24 9 32 20 8 11 22 20 32 20
10 0 18 5 18 10 0 6 11 10 25 10 14 0 25 5 25 10 0 6 9 10 20 10 11 0 20 5 20
10 0 6 14 10 30 10 17 0 30 5 30 10 0 6 9 10 20 10 11 0 20 5 20 10 0 6 5 10
10 10 12 0 22 8 80 62 22 20 40 43 40 50 0 7 9 20 20 28 11 8 20 20 20 27 0
19 32 53 50 53 9 0 22 9 30 20 8 11 20 20 28 20 18 0 112 97 112 116 0 8 5 14
10 14 6 0 10 9 10 20 0 11 5 20 10 20 6 0 10 14 10 30 0 17 5 30 10 30 6 0 10
9 10 20 0 11 5 20 10 20 6 0 10 11 10 25 0 14 5 25 10 25 6 0 10 8 10 18 0 10
9 24 20 32 11 8 20 22 20 32 0 10 5 18 10 18 6 0 10 9 10 20 0 11 5 20 10 20
6 0 10 9 10 20 0 11 7 23 15 26 8 4 15 14 15 23 0 9 9 23 20 31 11 8 20 22 20
32 0 10 5 18 10 18 6 0 10 14 10 30 0 17 5 30 10 30 6 0 10 7 10 15 0 8 5 15
10 15 6 0 10 23 10 50 0 28 5 50 10 50 6 0 10 32 10 75 0 41 4 75 9 75 4 0 11
31 13 69 5 66 7 71 51 115 26 25 52 46 60 46 7 0 19 9 27 20 14 20 26 20 542
20 l528 0 0 1620 0 1620 -70 0 -70 0 -55 55 c-31 30 -59 55 -64 55 -5 0 -12
18 -16 40 -4 22 -11 40 -16 40 -5 0 -9 9 -9 20 0 11 -4 20 -10 20 -5 0 -10 9
-10 19 0 11 -9 23 -20 26 -11 3 -20 13 -20 21 0 14 -83 104 -95 104 -9 0 -75
68 -75 77 0 5 -9 15 -20 23 -11 8 -20 22 -20 32 0 10 -4 18 -10 18 -5 0 -10 9
-10 20 0 11 -4 20 -10 20 -5 0 -10 8 -10 18 0 10 -9 24 -20 32 -11 8 -20 20
-20 27 0 7 -38 50 -84 97 -46 46 -87 93 -91 105 -3 11 -11 21 -16 21 -5 0 -9
9 -9 20 0 11 -4 20 -10 20 -5 0 -10 8 -10 18 0 10 -9 24 -20 32 -11 8 -20 20
-20 27 0 7 -4 13 -10 13 -5 0 -10 8 -10 18 0 10 -9 24 -20 32 -11 8 -20 22
-20 32 0 10 -4 18 -10 18 -5 0 -10 7 -10 15 0 16 -12 34 -38 58 -93 86 -152
149 -152 162 0 8 -4 15 -10 15 -5 0 -12 16 -16 35 -3 19 -10 35 -15 35 -5 0
-9 8 -9 18 0 10 -9 24 -20 32 -11 8 -20 21 -20 30 0 9 -10 22 -21 30 -12 8
-32 25 -45 38 -13 12 -26 22 -29 22 -11 0 -75 70 -75 82 0 8 -9 20 -20 28 -11
8 -20 20 -20 27 0 7 -4 13 -10 13 -5 0 -10 9 -10 20 0 11 -4 20 -10 20 -5 0
-10 8 -10 18 0 10 -9 24 -20 32 -11 8 -20 22 -20 32 0 9 -11 28 -25 40 -33 30
-163 160 -193 193 -12 14 -31 25 -40 25 -10 0 -24 9 -32 20 -8 12 -26 20 -42
20 -15 0 -28 5 -28 10 0 7 -268 10 -783 10 -771 0 -783 0 -797 20 -8 11 -21
20 -28 20 -17 0 -72 57 -72 74 0 6 -9 18 -20 26 -20 14 -20 26 -20 1097 0 715
-3 1083 -10 1083 -5 0 -10 5 -10 10 0 16 -68 80 -85 80 -8 0 -15 5 -15 10 0 7
-1237 10 -3690 10 -2453 0 -3690 -3 -3690 -10z m8880 -3320 c0 -5 14 -10 30
-10 17 0 30 -4 30 -10 0 -5 9 -10 20 -10 11 0 20 -4 20 -10 0 -5 9 -10 19 -10
11 0 23 -9 26 -20 3 -11 15 -20 25 -20 18 0 111 -87 170 -159 14 -17 33 -33
43 -36 9 -4 17 -14 17 -23 0 -10 9 -24 20 -32 11 -8 20 -22 20 -32 0 -10 5
-18 10 -18 6 0 10 -9 10 -20 0 -11 5 -20 10 -20 6 0 10 -7 10 -15 0 -8 4 -15
10 -15 5 0 13 -12 16 -27 7 -28 66 -93 84 -93 6 0 26 -15 45 -32 19 -18 40
-38 47 -45 26 -24 38 -42 38 -58 0 -8 5 -15 10 -15 6 0 10 -9 10 -20 0 -11 5
-20 10 -20 6 0 10 -9 10 -20 0 -11 5 -20 10 -20 6 0 10 -5 10 -10 0 -6 25 -35
55 -65 30 -31 55 -60 55 -65 0 -6 7 -10 15 -10 17 0 65 -43 65 -57 0 -5 9 -15
20 -23 11 -8 20 -22 20 -32 0 -10 5 -18 10 -18 6 0 10 -9 10 -20 0 -11 5 -20
10 -20 6 0 10 -9 10 -19 0 -11 7 -26 15 -35 8 -8 15 -17 15 -21 0 -4 18 -24
40 -45 22 -21 40 -44 40 -50 0 -7 15 -26 33 -43 21 -20 28 -32 19 -35 -7 -2
-24 -15 -37 -28 -13 -13 -31 -24 -40 -24 -8 0 -15 -4 -15 -10 0 -5 -9 -10 -20
-10 -11 0 -20 -4 -20 -10 0 -5 -11 -10 -25 -10 -14 0 -25 -4 -25 -10 0 -5 -13
-10 -30 -10 -16 0 -30 -4 -30 -10 0 -5 -13 -10 -30 -10 -16 0 -30 -4 -30 -10
0 -7 -363 -10 -1068 -10 -1056 0 -1068 0 -1082 20 -8 11 -21 20 -28 20 -20 0
-72 59 -72 80 0 10 -9 22 -20 25 -20 6 -20 15 -20 623 0 606 0 618 20 632 11
8 20 20 20 26 0 17 55 74 72 74 7 0 20 9 28 20 14 20 26 20 627 20 402 0 613
-3 613 -10z m-6680 -3660 c0 -5 18 -10 40 -10 22 0 40 -4 40 -10 0 -5 14 -10
30 -10 17 0 30 -4 30 -10 0 -5 11 -10 25 -10 14 0 25 -4 25 -10 0 -5 9 -10 20
-10 11 0 20 -4 20 -10 0 -5 9 -10 20 -10 11 0 20 -4 20 -10 0 -5 8 -10 18 -10
24 0 62 -33 62 -53 0 -16 92 -112 159 -167 17 -14 33 -33 36 -42 4 -10 13 -18
21 -18 20 0 64 -45 64 -65 0 -8 5 -15 10 -15 6 0 10 -7 10 -15 0 -8 5 -15 10
-15 6 0 10 -9 10 -20 0 -11 5 -20 10 -20 6 0 10 -13 10 -30 0 -16 5 -30 10
-30 6 0 10 -13 10 -29 0 -16 6 -31 13 -34 9 -3 12 -58 12 -232 0 -174 -3 -229
-12 -233 -7 -2 -13 -17 -13 -33 0 -16 -4 -29 -10 -29 -5 0 -10 -11 -10 -25 0
-14 -4 -25 -10 -25 -5 0 -10 -9 -10 -20 0 -11 -4 -20 -10 -20 -5 0 -10 -7 -10
-15 0 -9 -67 -83 -150 -165 -82 -82 -150 -154 -150 -160 0 -16 -47 -60 -65
-60 -8 0 -15 -4 -15 -10 0 -5 -9 -10 -20 -10 -11 0 -20 -4 -20 -10 0 -5 -9
-10 -20 -10 -11 0 -20 -4 -20 -10 0 -5 -11 -10 -25 -10 -14 0 -25 -4 -25 -10
0 -5 -13 -10 -29 -10 -16 0 -31 -6 -33 -12 -4 -10 -59 -13 -233 -13 -174 0
-229 3 -232 13 -3 6 -18 12 -34 12 -16 0 -29 5 -29 10 0 6 -13 10 -30 10 -16
0 -30 5 -30 10 0 6 -9 10 -20 10 -11 0 -20 5 -20 10 0 6 -7 10 -15 10 -8 0
-15 5 -15 10 0 6 -7 10 -15 10 -20 0 -65 44 -65 64 0 8 -8 17 -17 21 -10 3
-29 19 -43 36 -55 67 -151 159 -167 159 -20 0 -53 38 -53 62 0 10 -4 18 -10
18 -5 0 -10 9 -10 20 0 11 -4 20 -10 20 -5 0 -10 9 -10 20 0 11 -4 20 -10 20
-5 0 -10 11 -10 25 0 14 -4 25 -10 25 -5 0 -10 14 -10 30 0 17 -4 30 -10 30
-5 0 -10 18 -10 40 0 22 -4 40 -10 40 -6 0 -10 60 -10 160 0 100 4 160 10 160
6 0 10 16 10 35 0 19 5 35 10 35 6 0 10 14 10 30 0 17 5 30 10 30 6 0 10 14
10 30 0 17 5 30 10 30 6 0 10 9 10 20 0 11 5 20 10 20 6 0 10 7 10 15 0 8 5
15 10 15 6 0 10 8 10 18 0 22 32 62 49 62 21 0 211 189 211 211 0 18 60 69 81
69 10 0 19 5 19 10 0 6 7 10 15 10 8 0 15 5 15 10 0 6 9 10 20 10 11 0 20 5
20 10 0 6 14 10 30 10 17 0 30 5 30 10 0 6 14 10 30 10 17 0 30 5 30 10 0 6
16 10 35 10 19 0 35 5 35 10 0 6 60 10 160 10 100 0 160 -4 160 -10z m6080 0
c0 -5 16 -10 35 -10 19 0 35 -4 35 -10 0 -5 14 -10 30 -10 17 0 30 -4 30 -10
0 -5 14 -10 30 -10 17 0 30 -4 30 -10 0 -5 7 -10 15 -10 8 0 15 -4 15 -10 0
-5 9 -10 20 -10 11 0 20 -4 20 -10 0 -5 8 -10 18 -10 22 0 62 -32 62 -49 0
-15 12 -29 77 -94 88 -87 142 -137 148 -137 13 0 55 -50 55 -65 0 -8 5 -15 10
-15 6 0 10 -7 10 -15 0 -8 5 -15 10 -15 6 0 10 -9 10 -20 0 -11 5 -20 10 -20
6 0 10 -13 10 -30 0 -16 5 -30 10 -30 6 0 10 -13 10 -30 0 -16 5 -30 10 -30 6
0 10 -16 10 -35 0 -19 5 -35 10 -35 6 0 10 -60 10 -160 0 -100 -4 -160 -10
-160 -5 0 -10 -18 -10 -40 0 -22 -4 -40 -10 -40 -5 0 -10 -13 -10 -30 0 -16
-4 -30 -10 -30 -5 0 -10 -11 -10 -25 0 -14 -4 -25 -10 -25 -5 0 -10 -9 -10
-20 0 -11 -4 -20 -10 -20 -5 0 -10 -7 -10 -15 0 -9 -67 -83 -150 -165 -82 -83
-150 -155 -150 -160 0 -17 -47 -60 -65 -60 -8 0 -15 -4 -15 -10 0 -5 -9 -10
-20 -10 -11 0 -20 -4 -20 -10 0 -5 -7 -10 -15 -10 -8 0 -15 -4 -15 -10 0 -5
-13 -10 -30 -10 -16 0 -30 -4 -30 -10 0 -5 -13 -10 -29 -10 -16 0 -31 -6 -33
-12 -4 -10 -59 -13 -233 -13 -174 0 -229 3 -232 13 -3 6 -18 12 -34 12 -16 0
-29 5 -29 10 0 6 -13 10 -30 10 -16 0 -30 5 -30 10 0 6 -7 10 -15 10 -8 0 -15
5 -15 10 0 6 -9 10 -20 10 -11 0 -20 5 -20 10 0 6 -7 10 -15 10 -20 0 -65 44
-65 64 0 8 -8 17 -18 20 -10 3 -24 16 -32 28 -33 47 -161 168 -179 168 -11 0
-23 9 -26 20 -3 11 -11 20 -16 20 -5 0 -9 9 -9 20 0 11 -4 20 -10 20 -5 0 -10
9 -10 20 0 11 -4 20 -10 20 -5 0 -10 9 -10 20 0 11 -4 20 -10 20 -5 0 -10 11
-10 25 0 14 -4 25 -10 25 -5 0 -10 14 -10 30 0 17 -4 30 -10 30 -5 0 -10 18
-10 40 0 22 -4 40 -10 40 -6 0 -10 60 -10 160 0 100 4 160 10 160 6 0 10 16
10 35 0 19 5 35 10 35 6 0 10 14 10 30 0 17 5 30 10 30 6 0 10 14 10 30 0 17
5 30 10 30 6 0 10 9 10 20 0 11 5 20 10 20 6 0 10 7 10 15 0 8 5 15 10 15 6 0
10 9 10 20 0 11 4 20 9 20 5 0 13 9 16 20 3 11 13 20 21 20 25 0 214 186 214
211 0 18 60 69 81 69 10 0 19 5 19 10 0 6 9 10 20 10 11 0 20 5 20 10 0 6 7
10 15 10 8 0 15 5 15 10 0 6 14 10 30 10 17 0 30 5 30 10 0 6 14 10 30 10 17
0 30 5 30 10 0 6 16 10 35 10 19 0 35 5 35 10 0 6 62 10 165 10 103 0 165 -4
165 -10z"/>
</g>
</svg>
